<svg xmlns="http://www.w3.org/2000/svg" viewBox="64 147 450 333" fill="currentColor"><title>Trotter R07</title><path d="M176.5 176.391C175.714 177.212 176.072 179.421 175.809 180.5C174.734 184.913 173.182 189.18 171.81 193.5C167.173 208.105 159.064 221.664 152.589 235.5C151.418 238.002 143.72 251.042 144.5 252.292C145.653 252.332 146.461 252.556 147.5 251.919C150.325 250.189 152.901 247.339 155.5 245.254C161.266 240.631 167.313 236.139 173.5 232.091C196.581 216.991 220.299 203.721 246.5 194.781C251.089 193.215 278.69 185.603 281.647 187.5C282.533 190.381 279.101 196.566 278.094 199.5C274.789 209.127 271.26 218.778 268.236 228.5C256.938 264.819 243.385 300.35 231.663 336.5C228.093 347.512 224.435 358.498 220.833 369.5C220.322 371.061 217.034 380.26 217.5 380.988C221.713 381.215 227.502 378.622 231.5 377.268C239.742 374.477 248.363 372.757 256.5 369.614C265.014 366.325 273.821 362.962 282.5 360.23C286.005 359.127 302.13 353.581 303.943 351.5C316.725 309.884 332.862 269.376 347.692 228.5C351.355 218.405 355.205 208.299 359.5 198.466C360.483 196.215 361.709 189.686 363.833 188.5C366.711 187.386 375.135 189.407 378.5 189.81C392.175 191.449 412.349 196.065 422.5 206.052C424.753 208.269 427.44 210.592 428.821 213.5C429.754 215.463 430.176 219.337 431.5 220.82C434.663 219.618 436.812 211.511 438.357 208.5C443.626 198.231 449.365 188.016 454.087 177.5C455.585 174.165 458.149 171.081 458.99 167.5C457.576 166.418 444.098 167.995 441.5 168.075C424.832 168.592 408.181 169.615 391.5 170.014C339.547 171.254 287.393 170.583 235.5 173.52C219.207 174.443 202.749 174.152 186.5 175.658C183.399 175.945 179.376 175.304 176.5 176.391Z"/><path d="M210.5 400.76C208.501 403.718 207.261 408.172 205.818 411.5C201.264 422.004 192.571 433.429 183.5 440.577C176.334 446.224 169.279 450.919 161.449 455.5C159.812 456.457 157.158 456.798 156.238 458.5C156.98 459.37 180.118 456.167 183.5 455.968C198.843 455.064 214.129 453.043 229.5 452.221C242.162 451.544 254.848 451.245 267.5 450.481C273.904 450.094 292.934 451.11 297.5 449.673C297.914 449.543 297.913 448.907 298.064 448.5C294.575 444.721 279.649 449.12 279.438 434.5C279.249 421.487 287.387 402.211 291.393 389.5C292.037 387.456 296.23 375.752 295.5 375C288.095 376.787 280.749 380.222 273.5 382.681C261.465 386.762 248.91 390.972 236.5 393.897C232.362 394.873 212.629 398.929 210.5 400.76Z"/><path d="M470.5 253.304C468.924 254.983 467.944 258.44 466.713 260.5C461.627 269.01 453.138 276.645 445.5 282.819C419.957 303.467 390.477 320.119 360.5 333.304C327.637 347.758 294.892 363.067 260.5 373.767C238.973 380.464 217.171 386.324 195.5 392.552C189.627 394.239 183.483 394.929 177.5 396.167C157.336 400.339 136.212 403.59 115.5 402.063C106.898 401.429 90.109 398.607 89.087 387.5C87.869 374.279 101.707 362.447 110.5 354.439C130.5 336.223 155.348 321.628 179.5 309.861C187.828 305.803 195.91 301.06 204.5 297.462C214.835 293.132 224.997 288.307 235.5 284.35C240.03 282.643 245.367 281.916 246.069 276.5C244.391 275.047 237.554 279.019 235.5 279.784C224.26 283.965 213.437 289.066 202.5 293.97C168.694 309.127 131.028 328.674 103.952 354.5C94.219 363.784 78.454 378.914 86.241 393.5C90.966 402.35 102.902 403.591 111.5 405.382C135.759 410.437 164.426 403.147 188.5 399.979C204.676 397.851 220.834 392.755 236.5 388.342C284.523 374.815 330.514 356.282 375.5 334.971C388.228 328.941 400.24 321.298 412.5 314.378C431.533 303.633 470.454 277.024 476.892 255.5C475.877 254.622 471.675 253.198 470.5 253.304Z"/><path d="M464.956 239.5C465.083 258.175 493.594 256.458 493.875 238.5C492.823 220.212 465.511 221.679 464.956 239.5Z"/><path d="M345.877 248.5C346.203 250.582 352.581 248.253 354.5 247.663C363.012 245.047 371.865 243.356 380.5 241.162C398.121 236.685 445.515 228.313 461.5 234.763C464.26 235.489 464.674 232.636 465.929 230.5C463.305 228.034 446.529 228.918 442.5 229.035C422.955 229.604 403.58 233.575 384.5 237.054C380.481 237.787 376.571 239.367 372.5 239.949C365.503 240.948 354.04 243.476 347.5 245.956C346.407 246.37 346.099 247.489 345.877 248.5Z"/></svg>
